<svg xmlns="http://www.w3.org/2000/svg" viewBox="0 0 897.75 1292.34"><defs><style>@import url('https://fonts.googleapis.com/css2?family=Open+Sans');@font-face {font-family: 'Cone';src: url('Cone.woff') format('woff'),url('Cone.ttf') format('truetype');}.cls-1,.cls-11{font-size:8px;}.cls-1{fill:#4278bd;}.cls-1,.cls-4{font-family:Cone;}.cls-15,.cls-16,.cls-17,.cls-18,.cls-19,.cls-2,.cls-20,.cls-21,.cls-23,.cls-25,.cls-26,.cls-28,.cls-29,.cls-30,.cls-31,.cls-32,.cls-34,.cls-35,.cls-36,.cls-37,.cls-38,.cls-39,.cls-40,.cls-41,.cls-42,.cls-43,.cls-44,.cls-46,.cls-47,.cls-48,.cls-49,.cls-50,.cls-51{fill:none;stroke-miterlimit:10;}.cls-2,.cls-46{stroke:#000;}.cls-15,.cls-16,.cls-17,.cls-19,.cls-2,.cls-20,.cls-21,.cls-23,.cls-26,.cls-28,.cls-29,.cls-30,.cls-31,.cls-32,.cls-34,.cls-35,.cls-36,.cls-37,.cls-38,.cls-39,.cls-40,.cls-41,.cls-42,.cls-43,.cls-44,.cls-47,.cls-48,.cls-49,.cls-50,.cls-51{stroke-width:0.75px;}.cls-3{fill:#ed1a3b;}.cls-12,.cls-4{font-size:10px;}.cls-4{fill:#fff;}.cls-5{fill:#3c8476;}.cls-6{fill:#005aaa;}.cls-7{fill:#ffcb05;}.cls-8{fill:#f79c1d;}.cls-9{fill:#ffcd07;}.cls-10{fill:#f07d2e;}.cls-11,.cls-12,.cls-13,.cls-14{font-family:OpenSans, Open Sans;}.cls-13{font-size:4.06px;}.cls-14{font-size:9px;}.cls-15{stroke:#3c8476;}.cls-16,.cls-18{stroke:#f79c1d;}.cls-17{stroke:#eb1e3d;}.cls-19{stroke:#cccccb;}.cls-20,.cls-32,.cls-34,.cls-35,.cls-36,.cls-37,.cls-38,.cls-39,.cls-40,.cls-41,.cls-42,.cls-43,.cls-44{stroke:#ffcc06;}.cls-21{stroke:#231f20;}.cls-22{fill:#231f20;}.cls-23,.cls-25{stroke:#b94d9d;}.cls-24{fill:#b94d9d;}.cls-26{stroke:#4478bc;}.cls-27{fill:#4478bc;}.cls-28{stroke:#008181;}.cls-29{stroke:#3a54a4;}.cls-30,.cls-47,.cls-51{stroke:#ec1d3c;}.cls-31{stroke:#055ba9;}.cls-32{stroke-dasharray:5;}.cls-33{fill:#ffcc06;}.cls-34{stroke-dasharray:4.97 4.97;}.cls-35{stroke-dasharray:5.24 5.24;}.cls-36{stroke-dasharray:5.01 5.01;}.cls-37{stroke-dasharray:4.71 4.71;}.cls-38{stroke-dasharray:5.84 5.84;}.cls-39{stroke-dasharray:4.83 4.83;}.cls-40{stroke-dasharray:4.66 4.66;}.cls-41{stroke-dasharray:5.17 5.17;}.cls-42{stroke-dasharray:5.02 5.02;}.cls-43{stroke-dasharray:4.95 4.95;}.cls-44{stroke-dasharray:5.16 5.16;}.cls-45{fill:#b9529f;}.cls-47{stroke-dasharray:3.77 3.77;}.cls-48{stroke:#ffce09;}.cls-49,.cls-50{stroke:#ffcd07;}.cls-49,.cls-51{stroke-dasharray:2;}</style></defs><title>schema-linii-metrou-final</title><g id="Distante"><text class="cls-1" transform="translate(19.01 527.95) scale(1 1.04)">1261</text><text class="cls-1" transform="translate(70.16 527.95) scale(1 1.04)">1126</text><text class="cls-1" transform="translate(119.92 527.95) scale(1 1.04)">1432</text><text class="cls-1" transform="translate(171.71 527.95) scale(1 1.04)">818</text><text class="cls-1" transform="translate(221.38 527.95) scale(1 1.04)">1683</text><text class="cls-1" transform="translate(277.47 527.95) scale(1 1.04)">1861</text><text class="cls-1" transform="translate(353.32 522.03) scale(1 1.04)">1138</text><text class="cls-1" transform="translate(410.35 537.64) scale(1 1.04)">1331</text><text class="cls-1" transform="translate(486.5 564.08) scale(1 1.04)">1538</text><text class="cls-1" transform="translate(460.35 513.9) rotate(-90) scale(1 1.04)">1020</text><text class="cls-1" transform="translate(460.35 467.38) rotate(-90) scale(1 1.04)">996</text><text class="cls-1" transform="translate(469.37 394.11) rotate(-90) scale(1 1.04)">1330</text><text class="cls-1" transform="translate(454.84 367.14) scale(1 1.04)">1374</text><text class="cls-1" transform="translate(517.43 367.4) scale(1 1.04)">1831</text><text class="cls-1" transform="translate(245.78 200.96) rotate(-90) scale(1 1.04)">1413</text><text class="cls-1" transform="translate(245.78 257.76) rotate(-90) scale(1 1.04)">1456</text><text class="cls-1" transform="translate(245.99 318.98) rotate(-90) scale(1 1.04)">1123</text><text class="cls-1" transform="translate(245.78 363.68) rotate(-90) scale(1 1.04)">1526</text><text class="cls-1" transform="translate(590.4 387.28) scale(1 1.04)">1050</text><text class="cls-1" transform="translate(614.26 463.77) rotate(-90) scale(1 1.04)">1260</text><text class="cls-1" transform="translate(614.26 529.03) rotate(-90) scale(1 1.04)">1220</text><text class="cls-1" transform="translate(435.94 603.84) scale(1 1.04)">1319</text><text class="cls-1" transform="translate(513.81 622.27) scale(1 1.04)">1409</text><text class="cls-1" transform="translate(571.02 615.26) scale(1 1.04)">1634</text><text class="cls-1" transform="translate(647.63 605.54) scale(1 1.04)">1619</text><text class="cls-1" transform="translate(730.36 614.78) scale(1 1.04)">1211</text><text class="cls-1" transform="translate(779.05 614.78) scale(1 1.04)">1660</text><text class="cls-1" transform="translate(827.77 614.78) scale(1 1.04)">1214</text><text class="cls-1" transform="translate(677.77 737.85) scale(1 1.04)">1069</text><text class="cls-1" transform="translate(617.21 737.85) scale(1 1.04)">1264</text><text class="cls-1" transform="translate(551.73 737.85) scale(1 1.04)">1831</text><text class="cls-1" transform="translate(489.32 737.85) scale(1 1.04)">1397</text><text class="cls-1" transform="translate(426.05 732.93) scale(1 1.04)">1130</text><text class="cls-1" transform="translate(427.47 668.92) rotate(-90) scale(1 1.04)">1610</text><text class="cls-1" transform="translate(747.65 517.3) rotate(-90) scale(1 1.04)">1238</text><text class="cls-1" transform="translate(466.37 323.19) rotate(-90) scale(1 1.04)">1468</text><text class="cls-1" transform="translate(466.37 281.17) rotate(-90) scale(1 1.04)">1979</text><text class="cls-1" transform="translate(156.84 459.04) scale(1 1.04)">961</text><text class="cls-1" transform="translate(148.23 398.95) scale(1 1.04)">1855</text><text class="cls-1" transform="translate(199.28 465.13) scale(1 1.04)">1195</text><text class="cls-1" transform="translate(275.47 493.53) scale(1 1.04)">1524</text><text class="cls-1" transform="translate(392.31 382.14) scale(1 1.04)">1100</text><text class="cls-1" transform="translate(289.49 394.11) scale(1 1.04)">531</text><text class="cls-1" transform="translate(300.42 382.14) scale(1 1.04)">755</text><text class="cls-1" transform="translate(532.83 254.18) scale(1 1.04)">1381</text><text class="cls-1" transform="translate(750.43 450.49) scale(1 1.04)">1408</text><text class="cls-1" transform="translate(826.47 439.18) scale(1 1.04)">1920</text><text class="cls-1" transform="translate(792.88 348.91) scale(1 1.04)">353</text><text class="cls-1" transform="translate(724.74 591.26) scale(1 1.04)">1717</text><text class="cls-1" transform="translate(314.59 954.39) rotate(-90) scale(1 1.04)">663</text><text class="cls-1" transform="translate(314.59 867.09) rotate(-90) scale(1 1.04)">589</text><text class="cls-1" transform="translate(314.59 776.36) rotate(-90) scale(1 1.04)">616</text><text class="cls-1" transform="translate(314.59 691.48) rotate(-90) scale(1 1.04)">673</text><text class="cls-1" transform="translate(314.59 617.7) rotate(-90) scale(1 1.04)">1111.5</text><line class="cls-2" x1="545.01" y1="363.29" x2="541.73" y2="366.69"/></g><g id="Terminale"><rect class="cls-3" x="2.97" y="515.17" width="9.65" height="9.65"/><text class="cls-4" transform="translate(6.11 523.12) scale(1 1.04)">3</text><rect class="cls-5" x="239.47" y="19.71" width="9.65" height="9.65"/><text class="cls-4" transform="translate(242.28 27.66) scale(1 1.04)">4</text><rect class="cls-6" x="803.98" y="745.45" width="9.65" height="9.65"/><text class="cls-4" transform="translate(807.12 753.41) scale(1 1.04)">2</text><rect class="cls-3" x="885.07" y="606.67" width="9.65" height="9.65"/><text class="cls-4" transform="translate(888.21 614.62) scale(1 1.04)">3</text><rect class="cls-7" x="805.43" y="362.71" width="9.65" height="9.65"/><text class="cls-4" transform="translate(809.46 370.77) scale(1 1.04)">1</text><rect class="cls-5" x="348.5" y="392.93" width="9.65" height="9.65"/><text class="cls-4" transform="translate(351.31 400.88) scale(1 1.04)">4</text><rect class="cls-6" x="623.42" y="251.64" width="9.65" height="9.65"/><text class="cls-4" transform="translate(626.56 259.59) scale(1 1.04)">2</text><rect class="cls-7" x="619.51" y="587.1" width="9.65" height="9.65"/><text class="cls-4" transform="translate(623.55 595.16) scale(1 1.04)">1</text></g><g id="Peroane"><g id="M5"><polyline class="cls-8" points="313.59 557.76 313.59 576.34 307.25 576.34 307.25 557.76"/><polyline class="cls-8" points="315.22 641.55 315.22 660.13 308.88 660.13 308.88 641.55"/><polyline class="cls-8" points="315.22 713.2 315.22 731.77 308.88 731.77 308.88 713.2"/><polyline class="cls-8" points="315.22 813.25 315.22 831.83 308.88 831.83 308.88 813.25"/><polyline class="cls-8" points="315.22 892.68 315.22 911.26 308.88 911.26 308.88 892.68"/><polyline class="cls-8" points="315.22 987.87 315.22 1006.45 308.88 1006.45 308.88 987.87"/></g><g id="M4"><polyline class="cls-5" points="240.07 118.84 240.07 100.26 246.41 100.26 246.41 118.84"/><polyline class="cls-5" points="240.07 64.93 240.07 46.36 246.41 46.36 246.41 64.93"/><polyline class="cls-5" points="240.07 176.61 240.07 158.03 246.41 158.03 246.41 176.61"/><polyline class="cls-5" points="240.07 232.94 240.07 214.36 246.41 214.36 246.41 232.94"/><polyline class="cls-5" points="240.07 291.28 240.07 272.7 246.41 272.7 246.41 291.28"/><polyline class="cls-5" points="240.07 348.12 240.07 329.54 246.41 329.54 246.41 348.12"/><polyline class="cls-5" points="322.6 392.29 341.18 392.29 341.18 398.95 322.6 398.95"/><polyline class="cls-6" points="454.49 732.14 473.06 732.14 473.06 738.48 454.49 738.48"/><polyline class="cls-6" points="421.76 701.68 421.76 683.11 428.1 683.11 428.1 701.69"/><polyline class="cls-6" points="421.76 643.98 421.76 625.4 428.1 625.4 428.1 643.98"/><polyline class="cls-6" points="454.64 543.46 454.64 524.88 460.98 524.88 460.98 543.46"/><polyline class="cls-6" points="454.64 490.85 454.64 472.27 460.98 472.27 460.98 490.85"/><polyline class="cls-6" points="516.92 732.14 535.5 732.14 535.5 738.48 516.92 738.48"/><polyline class="cls-6" points="576.88 725.8 595.45 725.8 595.45 729.42 576.88 729.42"/><polyline class="cls-6" points="576.88 741.04 595.45 741.04 595.45 744.67 576.88 744.67"/><polyline class="cls-6" points="646.63 725.8 665.21 725.8 665.21 729.42 646.63 729.42"/><polyline class="cls-6" points="646.63 741.04 665.21 741.04 665.21 744.67 646.63 744.67"/><polyline class="cls-6" points="454.19 428.4 454.19 409.82 457.81 409.82 457.81 428.4"/><polyline class="cls-6" points="463.91 428.4 463.91 409.82 467.54 409.82 467.54 428.4"/><polyline class="cls-6" points="453.89 359.16 453.89 340.58 458.31 340.58 458.31 359.16"/><polyline class="cls-6" points="463.57 359.16 463.57 340.58 467.99 340.58 467.99 359.16"/><polyline class="cls-6" points="565.36 247.69 583.94 247.69 583.94 251.32 565.36 251.32"/><polyline class="cls-6" points="565.36 257.66 583.94 257.66 583.94 261.29 565.36 261.29"/><polyline class="cls-6" points="460.67 306.99 460.67 288.41 467 288.41 467 306.99"/><polyline class="cls-6" points="485.86 248.47 504.44 248.47 504.44 254.81 485.86 254.81"/><polyline class="cls-6" points="776.35 730.85 794.93 730.85 794.93 735.63 776.35 735.63"/><polyline class="cls-6" points="776.25 740.94 794.83 740.94 794.83 745.45 776.25 745.45"/></g><polyline class="cls-5" points="283.41 382.21 264.83 375.87 283.41 375.87"/><polyline class="cls-7" points="264.83 375.87 283.41 382.21 264.83 382.21"/><polyline class="cls-5" points="283.41 394.11 264.83 387.77 283.41 387.77"/><polyline class="cls-7" points="264.83 387.77 283.41 394.11 264.83 394.11"/><polyline class="cls-3" points="39.87 522.25 58.45 522.25 58.45 528.58 39.87 528.58"/><polyline class="cls-3" points="91.57 522.25 110.14 522.25 110.14 528.58 91.57 528.58"/><polyline class="cls-3" points="140.71 522.25 159.29 522.25 159.29 528.58 140.71 528.58"/><polyline class="cls-3" points="191.17 522.25 209.75 522.25 209.75 528.58 191.17 528.58"/><polyline class="cls-3" points="243.85 522.25 262.43 522.25 262.43 528.58 243.85 528.58"/><polyline class="cls-3" points="747.52 609.07 766.1 609.07 766.1 615.41 747.52 615.41"/><polyline class="cls-9" points="741.94 554.32 741.94 535.74 748.28 535.74 748.28 554.32"/><polyline class="cls-9" points="741.94 492.3 741.94 473.73 748.28 473.73 748.28 492.3"/><polyline class="cls-9" points="785.45 432.84 804.03 432.84 804.03 439.18 785.45 439.18"/><polyline class="cls-9" points="818.51 352.47 837.09 352.47 837.09 357 818.51 357"/><polyline class="cls-3" points="803.51 609.07 822.09 609.07 822.09 615.41 803.51 615.41"/><polyline class="cls-3" points="856.22 609.07 874.8 609.07 874.8 615.41 856.22 615.41"/><polyline class="cls-3" points="340.77 522.46 322.11 516.13 340.77 516.13"/><polyline class="cls-7" points="322.11 516.13 340.77 522.46 322.11 522.46"/><polyline class="cls-3" points="391.38 532.4 372.72 528.12 391.38 528.12"/><polyline class="cls-7" points="372.72 528.12 391.38 532.4 372.72 532.4"/><polyline class="cls-3" points="391.38 522.69 372.72 518.41 391.38 518.41"/><polyline class="cls-7" points="372.72 518.41 391.38 522.69 372.72 522.69"/><polyline class="cls-3" points="452.32 552.56 433.48 545.94 452.32 545.94"/><polyline class="cls-7" points="433.48 545.94 452.32 552.56 433.48 552.56"/><polyline class="cls-3" points="340.77 534.55 322.11 528.21 340.77 528.21"/><polyline class="cls-7" points="322.11 528.21 340.77 534.55 322.11 534.55"/><polyline class="cls-10" points="72.95 469.54 88.24 469.54 88.24 474.66 72.95 474.66"/><polyline class="cls-9" points="608.48 504.75 608.48 486.17 614.82 486.17 614.82 504.75"/><polyline class="cls-9" points="608.24 596.18 608.24 577.6 614.58 577.6 614.58 596.18"/><polyline class="cls-9" points="608.48 435.18 608.48 416.61 614.82 416.61 614.82 435.18"/><polyline class="cls-9" points="491.58 361.82 510.16 361.82 510.16 368.16 491.58 368.16"/><polyline class="cls-9" points="434.34 361.64 452.92 361.64 452.92 367.98 434.34 367.98"/><polyline class="cls-9" points="348.85 387.76 367.43 387.76 367.43 392.09 348.85 392.09"/><polyline class="cls-9" points="348.85 378.01 367.43 378.01 367.43 382.35 348.85 382.35"/><polyline class="cls-9" points="221.43 472.33 240.01 472.33 240.01 476.66 221.43 476.66"/><polyline class="cls-9" points="221.43 461.9 240.01 461.9 240.01 466.23 221.43 466.23"/><polyline class="cls-9" points="169.3 472.33 187.88 472.33 187.88 476.66 169.3 476.66"/><polyline class="cls-9" points="169.3 461.9 187.88 461.9 187.88 466.23 169.3 466.23"/><polyline class="cls-9" points="155.67 434.75 155.67 416.18 160 416.18 160 434.75"/><polyline class="cls-9" points="142.63 434.75 142.63 416.18 148.96 416.18 148.96 434.75"/><polyline class="cls-9" points="545.68 367.13 564.26 367.14 564.26 371.46 545.68 371.46"/><polyline class="cls-9" points="545.68 357.7 564.26 357.7 564.26 362.03 545.68 362.03"/><polyline class="cls-3" points="556.05 632.96 537.39 628.67 556.05 628.67"/><polyline class="cls-7" points="537.39 628.67 556.05 632.96 537.39 632.96"/><polyline class="cls-3" points="633.67 606.41 615.01 600.03 633.67 600.03"/><polyline class="cls-7" points="615.01 600.03 633.67 606.41 615.01 606.41"/><polyline class="cls-3" points="556.05 642.89 537.39 638.61 556.05 638.61"/><polyline class="cls-7" points="537.39 638.61 556.05 642.89 537.39 642.89"/><polyline class="cls-3" points="496.21 584.73 491.92 603.39 491.92 584.73"/><polyline class="cls-7" points="491.92 603.39 496.21 584.73 496.21 603.39"/><polyline class="cls-3" points="507.14 584.73 502.86 603.39 502.86 584.73"/><polyline class="cls-7" points="502.86 603.39 507.14 584.73 507.14 603.39"/><polyline class="cls-3" points="705.03 606.55 686.37 600.16 705.03 600.16"/><polyline class="cls-7" points="686.37 600.16 705.03 606.55 686.37 606.55"/><polyline class="cls-3" points="686.37 611.5 704.95 611.5 704.95 615.85 686.37 615.85"/><polyline class="cls-10" points="825.01 721.19 841.5 721.19 841.5 723.95 825.01 723.95"/></g><g id="Statii"><text class="cls-11" transform="translate(323.36 906.77) scale(1 1.04)">Tudor Vladimirescu</text><text class="cls-12" transform="translate(633.52 805.24) scale(1 1.04)">Legendă</text><text class="cls-11" transform="translate(323.36 825.98) scale(1 1.04)">Favorit</text><text class="cls-11" transform="translate(323.36 726.81) scale(1 1.04)">Orizont</text><text class="cls-11" transform="translate(323.36 656.29) scale(1 1.04)">Academia Militară</text><text class="cls-11" transform="translate(434.34 694.8) scale(1 1.04)">Eroii Revoluției</text><text class="cls-11" transform="translate(501.85 750.28) scale(1 1.04)">Piața Sudului</text><text class="cls-11" transform="translate(554.63 720.91) scale(1 1.04)">Apărătorii Patriei</text><text class="cls-11" transform="translate(625.04 720.91) scale(1 1.04)">Dimitrie Leonida</text><text class="cls-11" transform="translate(772.08 753.41) scale(1 1.04)">Berceni</text><text class="cls-11" transform="translate(819.28 712.25) scale(1 1.04)">Depoul IMGB</text><text class="cls-11" transform="translate(814.21 694.63) scale(1 1.04)">CFR Popești-Leordeni</text><text class="cls-11" transform="translate(755.26 547.47) scale(1 1.04)">Titan</text><text class="cls-11" transform="translate(755.26 485.45) scale(1 1.04)">Costin Georgian</text><text class="cls-11" transform="translate(814.21 449.86) scale(1 1.04)">Gara Titan Sud</text><text class="cls-11" transform="translate(776.52 426.87) scale(1 1.04)">Republica</text><text class="cls-11" transform="translate(806.44 348.45) scale(1 1.04)">Pantelimon</text><text class="cls-11" transform="translate(826.62 243.03) scale(1 1.04)">Depoul<tspan x="-7.87" y="9.22">Pantelimon</tspan></text><text class="cls-11" transform="translate(611.64 617.23) scale(1 1.04)">Dristor 1</text><text class="cls-11" transform="translate(673.26 584.35) scale(1 1.04)">Nicolae<tspan x="-6.48" y="9.22">Grigorescu</tspan></text><text class="cls-11" transform="translate(524.46 651.92) scale(1 1.04)">Mihai Bravu</text><text class="cls-11" transform="translate(510.86 596.5) scale(1 1.04)">Timpuri Noi</text><text class="cls-11" transform="translate(401.29 566.71) scale(1 1.04)">Piața Unirii 1</text><text class="cls-11" transform="translate(463.75 536.61) scale(1 1.04)">Piața Unirii 2</text><text class="cls-11" transform="translate(466.8 484) scale(1 1.04)">Universitate</text><text class="cls-11" transform="translate(473.58 421.55) scale(1 1.04)">Piața Romană</text><text class="cls-11" transform="translate(473.9 379.01) scale(1 1.04)">Ștefan cel Mare</text><text class="cls-11" transform="translate(545.35 383.56) scale(1 1.04)">Obor</text><text class="cls-11" transform="translate(621.06 428.01) scale(1 1.04)">Piața Iancului</text><text class="cls-11" transform="translate(619.85 498.26) scale(1 1.04)">Piața Muncii</text><text class="cls-11" transform="translate(469.52 352.98) scale(1 1.04)">Piața Victoriei 2</text><text class="cls-11" transform="translate(472.28 300.14) scale(1 1.04)">Aviatorilor</text><text class="cls-11" transform="translate(473.24 241.47) scale(1 1.04)">Aurel Vlaicu</text><text class="cls-11" transform="translate(562.68 270.38) scale(1 1.04)">Pipera</text><text class="cls-11" transform="translate(388.76 357.7) scale(1 1.04)">Piața Victoriei 1</text><text class="cls-11" transform="translate(358.33 410) scale(1 1.04)">Gara București Nord</text><text class="cls-11" transform="translate(618.04 584.35) scale(1 1.04)">Dristor 2</text><text class="cls-11" transform="translate(798.97 627.64) scale(1 1.04)">Nicolae<tspan x="4" y="9.22">Teclu</tspan></text><text class="cls-11" transform="translate(722.93 627.64) scale(1 1.04)">1 Decembrie 1918</text><text class="cls-11" transform="translate(852.62 627.64) scale(1 1.04)">Anghel<tspan x="-0.22" y="9.22">Saligny</tspan></text><text class="cls-11" transform="translate(431.65 637.09) scale(1 1.04)">Tineretului</text><text class="cls-11" transform="translate(442.46 750.28) scale(1 1.04)">Constantin <tspan x="-3.29" y="9.22">Brâncoveanu</tspan></text><text class="cls-11" transform="translate(251.37 58.08) scale(1 1.04)">Străulești</text><text class="cls-11" transform="translate(252.12 111.99) scale(1 1.04)">Laminorului</text><text class="cls-11" transform="translate(251.26 169.76) scale(1 1.04)">Parc Bazilescu</text><text class="cls-11" transform="translate(252.12 226.09) scale(1 1.04)">Jiului</text><text class="cls-11" transform="translate(252.67 284.43) scale(1 1.04)">1 Mai</text><text class="cls-11" transform="translate(253.21 341.27) scale(1 1.04)">Grivița</text><text class="cls-11" transform="translate(259.89 404.37) scale(1 1.04)">Basarab</text><text class="cls-11" transform="translate(209.82 395.68) scale(1 1.04)">Basarab</text><text class="cls-11" transform="translate(299.77 410) scale(1 1.04)">Gara de Nord</text><text class="cls-11" transform="translate(332.19 375.81) scale(1 1.04)">Gara de Nord</text><text class="cls-13" transform="translate(282.79 366.51) scale(1 1.04)">Linia de legătură<tspan x="9.07" y="4.68">M1-M4</tspan></text><text class="cls-13" transform="translate(331.02 581.72) rotate(-58.6) scale(1 1.04)">Linia de legătură<tspan x="0" y="4.68">M5-M1</tspan></text><text class="cls-11" transform="translate(170.54 14.97) scale(1 1.04)">Depoul<tspan x="-4.01" y="9.22">Străulești</tspan></text><text class="cls-11" transform="translate(19.01 784.7) scale(1 1.04)">CFR București Vest</text><text class="cls-11" transform="translate(21.85 628.67) scale(1 1.04)">Depoul Militari</text><text class="cls-11" transform="translate(33.82 539.33) scale(1 1.04)">Preciziei</text><text class="cls-11" transform="translate(92.3 539.33) scale(1 1.04)">Păcii</text><text class="cls-11" transform="translate(135.1 539.33) scale(1 1.04)">Gorjului</text><text class="cls-11" transform="translate(184.11 539.33) scale(1 1.04)">Lujerului</text><text class="cls-11" transform="translate(232.59 539.33) scale(1 1.04)">Politehnica</text><text class="cls-11" transform="translate(319.09 511.32) scale(1 1.04)">Eroilor</text><text class="cls-11" transform="translate(268.04 569.96) scale(1 1.04)">Eroilor 2</text><text class="cls-11" transform="translate(372.46 515.17) scale(1 1.04)">Izvor</text><text class="cls-11" transform="translate(162.19 427.9) scale(1 1.04)">Crângași</text><text class="cls-11" transform="translate(51.78 456.93) scale(1 1.04)">Depoul Ciurel</text><text class="cls-11" transform="translate(162.07 484.37) scale(1 1.04)">Petrache<tspan x="3.11" y="9.22">Penaru</tspan></text><text class="cls-11" transform="translate(211.08 486.17) scale(1 1.04)">Grozăvești</text><path d="M810.75,449.24v-.74H810v-2.25h-1.45v-1.5h.73V444h-3v.74H807v1.5h-.74v-.74h-1.51v.74H804v-1.5h-3v4.5h.76v1.5h1.51V450H804v.75h1.52V450h.73v.75h1.51V450h.7v.75H810V450h1.51v-.75Zm-7.5-2.25h-1.5V445.5h1.5Z"/><path d="M369.7,400.15v-.74h-.78v-2.25h-1.45v-1.5h.73v-.74h-3v.74H366v1.5h-.74v-.74h-1.51v.74H363v-1.5h-3v4.5h.76v1.5h1.51v-.75H363v.75h1.52v-.75h.73v.75h1.51v-.75h.7v.75h1.51v-.76h1.51v-.75Zm-7.5-2.25h-1.5v-1.49h1.5Z"/><path d="M253.94,394.79v-.74h-.78V391.8h-1.45v-1.5h.73v-.74h-3v.74h.76v1.5h-.74v-.74H248v.74h-.76v-1.5h-3v4.5h.76v1.5h1.51v-.75h.74v.75h1.52v-.75h.73v.75H251v-.75h.7v.75h1.51v-.76h1.51v-.75Zm-7.5-2.25h-1.5v-1.49h1.5Z"/><text class="cls-13" transform="translate(418.62 386.54) scale(1 1.04)">Linia de legătură<tspan x="9.07" y="4.68">M1-M2</tspan></text><path d="M810.49,693.45v-.74h-.78v-2.25h-1.45V689H809v-.74h-3V689h.76v1.5H806v-.74H804.5v.74h-.76V689h-3v4.5h.76V695H803v-.75h.74V695h1.52v-.75H806V695h1.51v-.75h.7V695h1.51v-.76h1.51v-.75ZM803,691.2h-1.5v-1.49H803Z"/><path d="M16.94,783.19v-.74h-.78V780.2H14.71v-1.5h.73V778h-3v.74h.76v1.5h-.74v-.74H11v.74h-.76v-1.5h-3v4.5h.76v1.5H9.45V784h.74v.75h1.52V784h.73v.75H14V784h.7v.75h1.51v-.76h1.51v-.75Zm-7.5-2.25H7.94v-1.49h1.5Z"/><text class="cls-11" transform="translate(326.35 1001.92) scale(1 1.04)">Parc Drumul Taberei</text><text class="cls-14" transform="translate(633.52 827.09) scale(1 1.04)">Elemente de linie</text><text class="cls-14" transform="translate(633.52 1178.76) scale(1 1.04)">Elemente de stație</text></g><g id="Macaze"><line class="cls-2" x1="238.85" y1="130.28" x2="248.05" y2="121.08"/><line class="cls-2" x1="248.05" y1="130.28" x2="238.85" y2="121.08"/><line class="cls-15" x1="316.86" y1="395.68" x2="312.51" y2="391.33"/><line class="cls-15" x1="312.34" y1="395.68" x2="316.69" y2="391.33"/><line class="cls-2" x1="238.85" y1="302.87" x2="248.05" y2="293.67"/><line class="cls-2" x1="248.05" y1="302.87" x2="238.85" y2="293.67"/><line class="cls-16" x1="306.18" y1="602.73" x2="316.17" y2="591.92"/><line class="cls-15" x1="238.85" y1="75.67" x2="248.05" y2="66.46"/><line class="cls-15" x1="248.05" y1="75.67" x2="238.85" y2="66.46"/><line class="cls-2" x1="306.19" y1="793.78" x2="317.78" y2="800.84"/><line class="cls-2" x1="318.1" y1="790.95" x2="306.51" y2="798.01"/><line class="cls-2" x1="141.28" y1="446" x2="150.48" y2="436.79"/><line class="cls-2" x1="150.48" y1="446" x2="141.28" y2="436.79"/><line class="cls-2" x1="333.8" y1="383.56" x2="336.12" y2="386.54"/><line class="cls-2" x1="342.01" y1="383.56" x2="339.7" y2="386.54"/><line class="cls-2" x1="380.13" y1="386.54" x2="382.44" y2="383.56"/><line class="cls-2" x1="392.31" y1="386.54" x2="390" y2="383.56"/><line class="cls-2" x1="417.44" y1="372.36" x2="424.82" y2="372.36"/><line class="cls-2" x1="421.13" y1="376.21" x2="421.13" y2="368.51"/><line class="cls-2" x1="590.78" y1="256.17" x2="587.51" y2="252.9"/><line class="cls-2" x1="587.51" y1="256.17" x2="590.78" y2="252.9"/><line class="cls-2" x1="462.54" y1="335.51" x2="459.27" y2="332.24"/><line class="cls-2" x1="459.27" y1="335.51" x2="462.54" y2="332.24"/><line class="cls-2" x1="468.62" y1="360.33" x2="477.28" y2="369.3"/><polyline class="cls-2" points="421.19 544.87 432.14 556.22 450.4 556.22"/><rect x="450.21" y="555" width="0.38" height="2.44"/><line class="cls-2" x1="672.36" y1="598.87" x2="681.02" y2="607.84"/><line class="cls-2" x1="263.71" y1="520.88" x2="272.37" y2="529.85"/><line class="cls-2" x1="29.08" y1="520.88" x2="37.74" y2="529.85"/><line class="cls-2" x1="37.74" y1="520.88" x2="29.08" y2="529.85"/><line class="cls-2" x1="557.83" y1="634.17" x2="560.76" y2="637.37"/><line class="cls-2" x1="560.76" y1="634.17" x2="557.83" y2="637.37"/><line class="cls-17" x1="845.04" y1="607.79" x2="853.7" y2="616.76"/><line class="cls-17" x1="853.7" y1="607.79" x2="845.04" y2="616.76"/><line class="cls-2" x1="611.48" y1="566.71" x2="616.17" y2="571.04"/><line class="cls-2" x1="616.17" y1="566.71" x2="611.48" y2="571.04"/><line class="cls-2" x1="462.3" y1="557.72" x2="453.12" y2="566.69"/><line class="cls-2" x1="457.71" y1="562.2" x2="457.71" y2="582.22"/><rect x="456.49" y="582.03" width="2.44" height="0.38"/><line class="cls-2" x1="444.28" y1="730.68" x2="453.35" y2="739.87"/><line class="cls-2" x1="597.37" y1="730.68" x2="606.44" y2="739.87"/><line class="cls-2" x1="676.32" y1="730.68" x2="667.26" y2="739.87"/><line class="cls-2" x1="498.01" y1="604.74" x2="501.4" y2="607.93"/><line class="cls-2" x1="501.4" y1="604.74" x2="498.01" y2="607.93"/><line class="cls-2" x1="459.44" y1="430.82" x2="462.41" y2="433.82"/><line class="cls-2" x1="462.41" y1="430.82" x2="459.44" y2="433.82"/><line class="cls-2" x1="312.3" y1="808.27" x2="312.3" y2="797.31"/><rect x="311.63" y="807.57" width="1.34" height="1.34"/><polyline class="cls-2" points="306.19 811.84 299.85 814.81 299.85 834.07 306.19 837.12"/><polyline class="cls-2" points="298.62 979.94 298.5 1013.56 306.38 1018.03"/><rect x="297.96" y="979.3" width="1.34" height="1.34" transform="translate(-682.44 1275) rotate(-89.79)"/><line class="cls-2" x1="325.91" y1="1012.59" x2="317.94" y2="1016.73"/><rect x="325.21" y="1011.94" width="1.34" height="1.34" transform="translate(-430.35 264.48) rotate(-27.47)"/><polyline class="cls-18" points="304.36 637.21 306.35 639.2 308.33 637.21"/><polyline class="cls-18" points="315.76 634.31 317.74 632.33 319.73 634.31"/><polyline class="cls-18" points="304.49 749.24 306.48 751.23 308.46 749.24"/><polyline class="cls-18" points="315.89 746.34 317.87 744.36 319.86 746.34"/><polyline class="cls-18" points="304.41 973.54 306.4 975.53 308.39 973.54"/><polyline class="cls-18" points="315.81 970.65 317.8 968.66 319.79 970.65"/><polyline class="cls-18" points="481.8 1080.83 483.79 1078.85 481.8 1076.86"/><polyline class="cls-18" points="478.9 1069.43 476.92 1067.45 478.9 1065.46"/><polyline class="cls-18" points="402.66 1093.48 404.65 1095.46 406.63 1093.48"/><polyline class="cls-18" points="414.06 1090.58 416.04 1088.59 418.03 1090.58"/></g><g id="Linii"><line class="cls-2" x1="340.23" y1="1078.94" x2="333.15" y2="1067.35"/><line class="cls-19" x1="153.43" y1="439.18" x2="153.43" y2="451.04"/><polyline class="cls-2" points="150.49 448.57 153.43 450.91 153.43 454.2"/><rect x="152.21" y="454.02" width="2.44" height="0.38"/><polyline class="cls-2" points="153.43 406.67 153.43 439.18 150.49 441.39"/><line class="cls-2" x1="634.96" y1="595.85" x2="642.18" y2="595.85"/><rect x="634.77" y="594.63" width="0.38" height="2.44"/><polyline class="cls-2" points="309.63 526.82 321.27 538.98 341.52 538.98 344.38 535.94"/><line class="cls-2" x1="316.17" y1="597.69" x2="356.05" y2="530.26"/><polyline class="cls-20" points="302.33 528.02 310.17 535.94 350.77 535.94 359.23 526.82"/><polyline class="cls-2" points="306.57 526.82 318.29 514.67 343.16 514.67 354.88 526.82"/><polyline class="cls-2" points="611.48 543.12 609.24 544.98 609.24 569.7"/><rect x="608.03" y="569.51" width="2.44" height="0.38"/><polyline class="cls-2" points="611.48 540.12 607.03 544.15 607.01 575.76"/><line class="cls-2" x1="468.3" y1="326.3" x2="468.3" y2="334.01"/><rect x="467.08" y="333.82" width="2.44" height="0.38"/><polyline class="cls-2" points="434.09 372.36 470.77 372.36 473.31 369.3"/><rect x="433.91" y="371.14" width="0.38" height="2.44"/><polyline class="cls-2" points="418.29 379.01 448.88 379.01 459.32 390.3"/><polyline class="cls-2" points="374.12 386.52 383.41 396.42 399.33 396.42"/><rect x="399.15" y="395.2" width="0.38" height="2.44"/><polyline class="cls-2" points="303.04 395.68 307.03 399.96 313.07 399.96"/><rect x="312.89" y="398.74" width="0.38" height="2.44"/><polyline class="cls-2" points="286.43 374.51 313.44 374.51 321.92 383.56"/><line class="cls-2" x1="805.48" y1="440.61" x2="814.21" y2="431.47"/><line class="cls-2" x1="768.56" y1="736.95" x2="771.05" y2="739.9"/><polyline class="cls-2" points="149.9 470.67 152.54 467.72 163.61 467.66"/><line class="cls-2" x1="132.65" y1="470.67" x2="159" y2="470.6"/><line class="cls-21" x1="124.37" y1="470.67" x2="36.49" y2="470.67"/><rect class="cls-22" x="36.31" y="469.45" width="0.38" height="2.44"/><line class="cls-16" x1="306.35" y1="1036.58" x2="306.35" y2="591.51"/><polyline class="cls-16" points="317.94 1036.58 317.94 605.17 304.41 589.23 304.41 555.99"/><line class="cls-21" x1="304.35" y1="555.99" x2="304.35" y2="549"/><rect class="cls-22" x="303.13" y="548.81" width="2.44" height="0.38"/><line class="cls-21" x1="316.17" y1="555.99" x2="316.17" y2="549"/><rect class="cls-22" x="314.95" y="548.81" width="2.44" height="0.38"/><line class="cls-16" x1="316.17" y1="603.06" x2="316.17" y2="555.99"/><line class="cls-21" x1="247.9" y1="45.77" x2="247.9" y2="30.99"/><rect class="cls-22" x="246.69" y="30.8" width="2.44" height="0.38"/><line class="cls-21" x1="238.79" y1="45.65" x2="238.79" y2="30.86"/><rect class="cls-22" x="237.57" y="30.67" width="2.44" height="0.38"/><polyline class="cls-15" points="238.79 45.65 238.7 371.46 262.92 395.68 317.06 395.68 321.21 400.18 341.97 400.18"/><rect class="cls-5" x="341.78" y="398.96" width="0.38" height="2.44"/><polyline class="cls-15" points="247.91 45.8 247.91 366.5 256.01 374.51 286.43 374.51 302.44 391.33 312.71 391.33 342.18 391.33"/><rect class="cls-5" x="341.99" y="390.11" width="0.38" height="2.44"/><polyline class="cls-23" points="11.72 754.53 11.72 705.85 18.58 705.85 18.58 614.01 68.54 614.01 68.54 604.78 101.33 604.78 101.33 769.05 56.71 769.05"/><rect class="cls-24" x="10.5" y="754.35" width="2.44" height="0.38"/><rect class="cls-24" x="56.52" y="767.83" width="0.38" height="2.44"/><polyline class="cls-25" points="11.72 757.93 11.72 769.05 52.16 769.05"/><rect class="cls-24" x="10.09" y="757.68" width="3.25" height="0.5"/><rect class="cls-24" x="51.91" y="767.42" width="0.5" height="3.25"/><polyline class="cls-26" points="6.23 772.85 6.23 760.23 9.89 756.29 33.2 756.29 40.04 749.69"/><polygon class="cls-27" points="9.3 770.37 8.75 769.86 6.23 772.57 3.71 769.86 3.16 770.37 6.23 773.67 9.3 770.37"/><polyline class="cls-28" points="34.58 751.33 36.22 749.69 44.15 749.69 45.51 751.33"/><polyline class="cls-26" points="43.23 746.69 46.85 743.01 46.85 723.57"/><rect class="cls-27" x="45.63" y="723.38" width="2.44" height="0.38"/><polyline class="cls-28" points="37.77 745.04 39.41 746.69 47.34 746.69 48.69 745.04"/><rect class="cls-29" x="26.57" y="715.12" width="3.87" height="22.68"/><rect class="cls-29" x="20.56" y="644.79" width="9.83" height="29.18"/><rect class="cls-29" x="30.4" y="644.79" width="9.83" height="29.18"/><rect class="cls-29" x="56.52" y="655.22" width="9.22" height="36.65"/><rect class="cls-29" x="30.28" y="680.64" width="9.96" height="17.11"/><rect class="cls-29" x="70.89" y="676.73" width="24.79" height="29.36"/><rect class="cls-29" x="34.88" y="719.53" width="3.66" height="9.14"/><rect class="cls-29" x="38.55" y="719.53" width="3.83" height="21.03"/><rect class="cls-29" x="49.12" y="719.53" width="3.79" height="9.14"/><rect class="cls-29" x="49.12" y="730.8" width="3.79" height="9.75"/><polyline class="cls-2" points="39.42 529.83 20.54 529.83 10.27 540.1 10.11 604.3 15.2 609.3 66.67 609.3"/><polyline class="cls-2" points="7.07 537.64 4.02 540.38 4.02 607.03 15.24 618.19 15.24 703.79"/><line class="cls-29" x1="76.28" y1="676.73" x2="76.28" y2="706.09"/><line class="cls-29" x1="85.98" y1="676.73" x2="85.98" y2="706.09"/><line class="cls-2" x1="14.53" y1="762.33" x2="49.31" y2="762.33"/><rect x="14.34" y="761.11" width="0.38" height="2.44"/><polyline class="cls-2" points="14.53 765.32 46.33 765.32 97.79 713.73 97.79 607.3"/><rect x="14.34" y="764.1" width="0.38" height="2.44"/><rect x="96.57" y="607.12" width="2.44" height="0.38"/><polyline class="cls-2" points="94.14 703.53 94.14 712.86 66.56 740.56 62.61 740.56"/><line class="cls-2" x1="91.79" y1="703.53" x2="91.79" y2="715.22"/><line class="cls-2" x1="87.29" y1="703.53" x2="87.29" y2="715.85"/><polyline class="cls-2" points="65.71 737.45 65.71 733.61 84.4 715.12 84.4 703.53"/><line class="cls-2" x1="82.05" y1="703.53" x2="82.05" y2="717.44"/><polyline class="cls-2" points="79.85 703.53 79.85 716.05 67.99 727.77 67.99 731.35"/><line class="cls-2" x1="77.5" y1="703.53" x2="77.5" y2="718.37"/><polyline class="cls-2" points="54.35 775.75 54.35 748.83 89.44 713.7 89.44 703.53"/><polygon points="57.42 773.26 56.87 772.75 54.35 775.46 51.83 772.75 51.28 773.26 54.35 776.56 57.42 773.26"/><polyline class="cls-2" points="22.09 671.25 22.09 697.75 28.75 704.63 53.03 704.63 70.17 721.82"/><line class="cls-2" x1="24.4" y1="671.25" x2="24.4" y2="700.11"/><polyline class="cls-2" points="26.63 671.25 26.63 699.49 31.77 704.63"/><polyline class="cls-2" points="74.56 703.53 74.56 713.92 70.17 717.98 70.17 725.62"/><line class="cls-2" x1="72.37" y1="703.53" x2="72.37" y2="715.95"/><polyline class="cls-2" points="58.83 689.2 58.83 704.02 67.8 712.52"/><line class="cls-2" x1="63.31" y1="689.2" x2="63.31" y2="708.27"/><polyline class="cls-2" points="61.13 689.2 61.13 698.91 63.31 700.86"/><polyline class="cls-2" points="70.1 609.39 81.45 609.39 93.95 621.89 94.08 679.36"/><polyline class="cls-2" points="70.1 612.26 80.1 612.43 91.04 623.41 91.04 649.23"/><polyline class="cls-2" points="71.54 616.06 78.58 616.06 88.06 625.7 88.06 641.93 70.89 658.78 70.89 662.78"/><rect x="71.35" y="614.84" width="0.38" height="2.44"/><polyline class="cls-2" points="67.8 719.44 67.8 665.64 91.04 642.5"/><polyline class="cls-28" points="79.29 607.87 70.1 607.87 70.1 613.93 79.29 613.93"/><polyline class="cls-2" points="14.53 759.39 40.24 759.39 54.91 744.42 58.76 744.42"/><rect x="14.34" y="758.17" width="0.38" height="2.44"/><polyline class="cls-2" points="15.32 707.6 15.32 737.05 26.57 748.32 51.09 748.32"/><polyline class="cls-28" points="13.8 716.78 13.8 707.6 16.83 707.6 16.83 716.78"/><line class="cls-2" x1="67.8" y1="672.93" x2="72.33" y2="668.88"/><polyline class="cls-2" points="72.33 679.36 72.33 665.38 76.63 661.2 79.88 661.2"/><polyline class="cls-2" points="74.53 679.36 74.53 666.1 81.14 659.71 84.45 659.71"/><line class="cls-2" x1="77.56" y1="679.35" x2="77.56" y2="663.17"/><polyline class="cls-2" points="94.01 646.18 88.22 651.92 88.22 665.72 91.64 669.13"/><polyline class="cls-2" points="94.05 665.11 91.77 667.27 91.77 679.36"/><line class="cls-2" x1="89.63" y1="679.35" x2="89.63" y2="667.13"/><polyline class="cls-2" points="94.02 654.45 85.98 662.6 85.98 667.29 87.4 668.45 87.49 679.36"/><polyline class="cls-2" points="84.45 679.36 84.45 673.51 87.42 671.26"/><polyline class="cls-2" points="79.88 679.36 79.88 663.9 88.22 655.86"/><line class="cls-2" x1="81.95" y1="679.35" x2="82.09" y2="661.77"/><rect class="cls-23" x="34.22" y="446.42" width="96.7" height="49.43"/><polyline class="cls-28" points="107.41 469.06 117.48 469.06 117.48 472.28 107.41 472.28"/><rect class="cls-29" x="65.56" y="476.01" width="30.06" height="16.27"/><polyline class="cls-2" points="92.99 484.15 110.71 484.15 124 470.69 129.76 470.69"/><polyline class="cls-2" points="92.99 477.42 99.54 477.42 106.65 484.15"/><line class="cls-2" x1="92.99" y1="479.59" x2="101.89" y2="479.59"/><line class="cls-2" x1="92.99" y1="481.83" x2="104.19" y2="481.83"/><line class="cls-2" x1="92.99" y1="486.41" x2="104.19" y2="486.41"/><line class="cls-2" x1="92.99" y1="488.66" x2="101.89" y2="488.66"/><polyline class="cls-2" points="92.99 490.88 99.54 490.88 106.65 484.15"/><polyline class="cls-26" points="62.62 476.63 59.97 476.63 56.8 473.79 100.16 473.64"/><rect class="cls-27" x="62.43" y="475.41" width="0.38" height="2.44"/><line class="cls-21" x1="97.17" y1="470.67" x2="103.02" y2="476.5"/><rect class="cls-22" x="101.8" y="476.31" width="2.44" height="0.38" transform="translate(-307.28 213.22) rotate(-45.11)"/><polyline class="cls-21" points="58.97 470.67 61.76 467.64 90.28 467.64"/><rect class="cls-22" x="90.09" y="466.42" width="0.38" height="2.44"/><polyline class="cls-26" points="881.23 742.03 886.67 742.03 889.9 738.11 889.9 700.69"/><polygon class="cls-27" points="892.97 703.17 892.42 703.68 889.91 700.98 887.39 703.68 886.84 703.17 889.91 699.87 892.97 703.17"/><polyline class="cls-30" points="39.48 520.88 290.31 520.95 292.8 523.89 301.82 523.89"/><polyline class="cls-30" points="39.48 529.83 290.31 529.77 292.8 526.82 359.23 526.82"/><polyline class="cls-31" points="459.27 374.01 459.49 450.49 453.59 456.18 453.39 543.46"/><line class="cls-31" x1="462.41" y1="374.01" x2="462.19" y2="543.46"/><polyline class="cls-31" points="462.41 555.03 462.41 588.22 429.53 621.07 429.44 719.8 440.24 730.6 696.44 730.87 701.73 736.5 704.78 736.5"/><line class="cls-31" x1="462.41" y1="546.04" x2="462.41" y2="552.46"/><line class="cls-31" x1="453.41" y1="552.46" x2="453.45" y2="546.04"/><polyline class="cls-31" points="704.78 739.87 431.28 739.87 420.41 728.58 420.31 612.1 453.24 579.53 453.39 555.03"/><polyline class="cls-2" points="853.33 607.91 856.88 604.79 883.98 604.79"/><rect x="883.79" y="603.57" width="0.38" height="2.44"/><polyline class="cls-2" points="842.05 616.89 844.79 620.02 883.98 620.02"/><rect x="883.79" y="618.8" width="0.38" height="2.44"/><line class="cls-2" x1="875.13" y1="607.91" x2="883.98" y2="607.91"/><rect x="883.79" y="606.69" width="0.38" height="2.44"/><line class="cls-2" x1="874.95" y1="616.7" x2="883.98" y2="616.7"/><rect x="883.79" y="615.48" width="0.38" height="2.44"/><line class="cls-2" x1="585.01" y1="252.9" x2="622.27" y2="252.9"/><rect x="622.09" y="251.68" width="0.38" height="2.44"/><line class="cls-2" x1="622.27" y1="256.21" x2="585.01" y2="256.21"/><rect x="622.09" y="255" width="0.38" height="2.44"/><polyline class="cls-2" points="591.55 252.9 597.17 247.14 631.07 247.14"/><rect x="630.88" y="245.93" width="0.38" height="2.44"/><line class="cls-2" x1="594.36" y1="250.02" x2="631.07" y2="250.02"/><rect x="630.88" y="248.8" width="0.38" height="2.44"/><polyline class="cls-31" points="585 252.9 558.92 252.9 553 247.14 477.12 247.14 459.45 264.72 459.27 359.16"/><line class="cls-2" x1="794.93" y1="736.99" x2="849.64" y2="736.71"/><polyline class="cls-2" points="794.93 739.9 800.14 739.9 828.26 739.9"/><rect x="828.07" y="738.68" width="0.38" height="2.44"/><line class="cls-2" x1="835.08" y1="739.9" x2="852.66" y2="739.9"/><rect x="834.89" y="738.68" width="0.38" height="2.44"/><line class="cls-32" x1="673.84" y1="607.91" x2="719.21" y2="607.91"/><polyline class="cls-23" points="881.22 743.73 881.22 745.45 827.22 745.45 827.22 742.59 706.55 743.54 706.55 730.96 726.04 730.96 757.16 698.99 880.88 698.99 881.23 740.62"/><rect class="cls-24" x="880.01" y="743.54" width="2.44" height="0.38"/><rect class="cls-24" x="880.01" y="740.43" width="2.44" height="0.37" transform="translate(-6.12 7.34) rotate(-0.48)"/><polyline class="cls-28" points="721.45 735.65 708.31 735.65 708.31 741.24 721.45 741.24"/><polyline class="cls-2" points="841.89 728.54 854.68 742.03 881.23 742.03"/><rect class="cls-29" x="780.62" y="690.25" width="9.83" height="30.37" transform="translate(80.1 1490.98) rotate(-90)"/><rect class="cls-29" x="780.62" y="700.09" width="9.83" height="30.37" transform="translate(70.27 1500.81) rotate(-90)"/><rect class="cls-29" x="780.62" y="709.92" width="9.83" height="30.37" transform="translate(60.44 1510.65) rotate(-90)"/><rect class="cls-29" x="805.86" y="719.97" width="4.92" height="15.18" transform="translate(80.75 1535.88) rotate(-90)"/><polyline class="cls-2" points="720.36 734.08 733.83 734.08 755.26 712.25 772.99 712.25"/><rect x="720.17" y="732.86" width="0.38" height="2.44"/><polyline class="cls-2" points="749.07 718.56 749.07 715.64 757.65 706.9 772.99 706.9"/><polyline class="cls-2" points="751.34 713.33 751.34 710.36 759.26 702.32 772.99 702.32"/><line class="cls-2" x1="753.25" y1="714.3" x2="772.99" y2="714.3"/><line class="cls-2" x1="755.6" y1="709" x2="772.99" y2="709"/><line class="cls-2" x1="757.12" y1="704.48" x2="772.99" y2="704.48"/><line class="cls-2" x1="750.44" y1="721.68" x2="772.99" y2="721.87"/><line class="cls-2" x1="753.25" y1="718.85" x2="772.99" y2="718.85"/><line class="cls-2" x1="743.65" y1="728.5" x2="772.99" y2="728.5"/><polyline class="cls-2" points="755.26 721.88 756.88 724.01 772.99 724.01"/><polyline class="cls-2" points="747.67 728.5 749.47 726.32 772.99 726.32"/><polyline class="cls-2" points="797.97 714.34 805.36 714.34 809.22 718.83"/><line class="cls-2" x1="797.96" y1="716.58" x2="807.29" y2="716.58"/><line class="cls-2" x1="797.96" y1="721.87" x2="815.77" y2="721.87"/><polyline class="cls-2" points="797.97 724.09 806.09 724.09 807.93 721.88"/><rect class="cls-23" x="784.14" y="232.31" width="109.99" height="106.61"/><line class="cls-2" x1="787.88" y1="319.5" x2="787.88" y2="337.14"/><polygon points="786.6 321 787.88 319.72 789.15 321 789.15 319.92 787.88 318.64 786.6 319.92 786.6 321"/><line class="cls-2" x1="790.82" y1="317.13" x2="790.82" y2="337.08"/><polygon points="789.54 318.58 790.82 317.31 792.09 318.58 792.09 317.5 790.82 316.23 789.54 317.5 789.54 318.58"/><polyline class="cls-28" points="786.25 325.48 786.25 337.08 792.31 337.08 792.31 325.48"/><polyline class="cls-2" points="787.84 339.38 787.84 350.69 798.18 361.03 816.35 361.03"/><rect x="816.17" y="359.81" width="0.38" height="2.44"/><polyline class="cls-2" points="790.82 339.38 790.82 349.35 799.77 358.07 816.35 358.07 816.65 358.07"/><line class="cls-2" x1="807.64" y1="361.03" x2="809.99" y2="358.07"/><line class="cls-2" x1="815.38" y1="361.03" x2="813.04" y2="358.07"/><polyline class="cls-20" points="817.01 358.07 839.14 358.07 856.75 376 856.75 422.33 838.99 440.61 772.97 440.61 749.81 463.77 749.68 577.41 719.05 607.65"/><line class="cls-2" x1="805.48" y1="431.47" x2="834.41" y2="431.47"/><rect x="834.22" y="430.25" width="0.38" height="2.44"/><polyline class="cls-2" points="816.71 431.47 819.4 428.54 834.41 428.54"/><rect x="834.22" y="427.32" width="0.38" height="2.44"/><polyline class="cls-20" points="663.69 598.8 710 598.8 740.68 568.05 740.46 452.38 761.57 431.64 805.27 431.44 813.99 440.58"/><line class="cls-20" x1="659.9" y1="598.8" x2="639.84" y2="598.8"/><polyline class="cls-30" points="875.16 616.7 679.83 616.7 658.97 595.85 642.18 595.85 639.1 598.81"/><line class="cls-30" x1="718.6" y1="607.91" x2="875.16" y2="607.91"/><polyline class="cls-2" points="735.37 736.82 755.26 716.83 772.99 716.83"/><polyline class="cls-21" points="821.73 722.66 844.4 722.66 852.11 730.54 852.11 734.08"/><rect class="cls-22" x="821.54" y="721.45" width="0.38" height="2.44"/><polyline class="cls-21" points="819.28 725.47 843.87 725.47 846.03 728.37"/><line class="cls-30" x1="673.23" y1="607.91" x2="718.6" y2="607.91"/><polyline class="cls-20" points="251.41 386.58 173.38 386.62 150.49 409.64 150.49 454.42 163.61 467.66 246.63 467.66 301.82 523.89"/><line class="cls-20" x1="295.47" y1="386.56" x2="256.02" y2="386.58"/><polyline class="cls-20" points="607.01 597.07 607.01 575.76 611.46 571.31 611.64 534.26 607.01 529.95 607.08 405.2 568.3 366.5 530.53 366.5 527.83 369.3 427.73 369.3 411 386.5 374.12 386.52 299.77 386.56"/><rect class="cls-33" x="605.79" y="596.88" width="2.44" height="0.38"/><polyline class="cls-20" points="297.01 383.56 406.26 383.56 429.35 360.44 527.91 360.33 530.54 363.37 585.61 363.24 616 393.72 616.26 597.07"/><rect class="cls-33" x="615.04" y="596.88" width="2.44" height="0.38" transform="translate(-0.78 0.8) rotate(-0.07)"/><line class="cls-20" x1="252.79" y1="383.56" x2="293.78" y2="383.56"/><polyline class="cls-20" points="248.25 383.56 156.27 383.56 141.28 398.43 141.4 453.04 158.9 470.6 245.04 470.66 296.56 522.7"/><polyline class="cls-2" points="812.13 728.54 846.69 728.54 859.48 742.03"/><polyline class="cls-2" points="797.97 718.83 812.8 718.83 822.27 728.54"/><line class="cls-2" x1="802.63" y1="736.95" x2="800.14" y2="739.9"/><line class="cls-2" x1="745.89" y1="721.77" x2="745.89" y2="726.32"/><line class="cls-2" x1="748.11" y1="724.13" x2="743.56" y2="724.13"/><polyline class="cls-30" points="668.39 607.91 598.33 607.91 568.83 637.2 521.37 637.2 497.96 613.38 497.96 581.54 470.15 553.65 420.03 553.96 393.45 526.82 359.23 526.82"/><line class="cls-20" x1="668.39" y1="607.92" x2="665.89" y2="607.92"/><polyline class="cls-34" points="660.92 607.91 598.33 607.91 568.83 637.2 526.36 637.2"/><polyline class="cls-20" points="523.87 637.2 521.37 637.2 519.62 635.41"/><polyline class="cls-35" points="515.95 631.67 497.96 613.38 497.96 581.54 473.77 557.28"/><polyline class="cls-20" points="471.92 555.42 470.15 553.65 467.65 553.67"/><line class="cls-36" x1="462.64" y1="553.7" x2="425.04" y2="553.93"/><polyline class="cls-20" points="422.53 553.94 420.03 553.96 418.28 552.17"/><line class="cls-37" x1="414.98" y1="548.8" x2="396.85" y2="530.29"/><polyline class="cls-20" points="395.2 528.61 393.45 526.82 390.95 526.82"/><line class="cls-38" x1="385.11" y1="526.82" x2="364.66" y2="526.82"/><line class="cls-20" x1="361.73" y1="526.82" x2="359.23" y2="526.82"/><polyline class="cls-30" points="639.84 598.8 602.63 598.89 567.38 634.25 523.28 634.25 501.42 612.48 501.36 580.65 465.64 544.75 415.49 545 394.55 523.88 301.82 523.89"/><line class="cls-20" x1="639.84" y1="598.8" x2="637.34" y2="598.81"/><polyline class="cls-39" points="632.51 598.82 602.63 598.89 570.85 630.77"/><polyline class="cls-20" points="569.14 632.48 567.38 634.25 564.88 634.25"/><polyline class="cls-40" points="560.22 634.25 523.28 634.25 504.84 615.89"/><polyline class="cls-20" points="503.19 614.25 501.42 612.48 501.42 609.98"/><polyline class="cls-41" points="501.4 604.82 501.36 580.65 469.22 548.35"/><polyline class="cls-20" points="467.4 546.52 465.64 544.75 463.14 544.76"/><line class="cls-42" x1="458.12" y1="544.79" x2="420.5" y2="544.97"/><polyline class="cls-20" points="417.99 544.98 415.49 545 413.73 543.22"/><line class="cls-43" x1="410.25" y1="539.71" x2="398.05" y2="527.41"/><polyline class="cls-20" points="396.31 525.65 394.55 523.88 392.05 523.88"/><line class="cls-44" x1="386.89" y1="523.88" x2="306.9" y2="523.89"/><polyline class="cls-20" points="304.32 523.89 301.82 523.89 301.29 523.36"/><polygon points="263.93 380.98 263.93 389.2 265.41 389.2 265.41 392.93 262.45 392.93 262.45 377.24 265.41 377.24 265.41 380.98 263.93 380.98"/><polygon points="284.28 380.98 284.28 389.2 282.8 389.2 282.8 392.93 285.76 392.93 285.76 377.24 282.8 377.24 282.8 380.98 284.28 380.98"/><polygon points="346.49 381.74 346.49 388.49 349.53 388.49 349.53 391.51 346.49 391.51 346.49 397.51 340.51 397.51 340.51 393.69 344.21 393.69 344.21 378.72 349.53 378.72 349.53 381.74 346.49 381.74"/><line class="cls-2" x1="379.21" y1="391.95" x2="399.33" y2="391.95"/><rect x="399.15" y="390.73" width="0.38" height="2.44"/><line class="cls-2" x1="381.29" y1="394.15" x2="399.33" y2="394.15"/><rect x="399.15" y="392.94" width="0.38" height="2.44"/><polyline class="cls-2" points="382.44 391.95 384.36 389.6 399.33 389.6"/><rect x="399.15" y="388.38" width="0.38" height="2.44"/><line class="cls-21" x1="247.9" y1="43.54" x2="232.61" y2="28.77"/><rect class="cls-25" x="133.71" y="3.23" width="98.87" height="56.72"/><polyline class="cls-31" points="585 256.21 480.33 256.14 468.29 267.95 468.37 326.4 462.63 331.83 462.63 359.16"/><polygon points="467.27 355.49 467.27 358.5 452.27 358.5 452.27 366.78 449.35 366.78 449.35 362.96 450.81 362.96 450.81 357.01 454.5 357.01 454.5 355.49 457.51 355.49 457.51 357.01 464.26 357.01 464.26 355.49 467.27 355.49"/><polygon points="341.59 521.31 341.59 529.53 340.11 529.53 340.11 533.26 343.07 533.26 343.07 517.57 340.11 517.57 340.11 521.31 341.59 521.31"/><polygon points="320.96 521.31 320.96 529.53 322.44 529.53 322.44 533.26 319.48 533.26 319.48 517.57 322.44 517.57 322.44 521.31 320.96 521.31"/><polygon points="459.7 542.14 459.7 551.21 450.71 551.21 450.71 547.45 455.93 547.45 455.93 542.14 459.7 542.14"/><polyline class="cls-2" points="66.35 612.26 13.31 612.26 7.07 605.86 7.15 532.13 18.58 520.88 39.5 520.88"/><polygon points="685.47 605.24 685.47 611.98 686.97 611.98 686.97 614.98 683.97 614.98 683.97 601.48 686.97 601.48 686.97 605.24 685.47 605.24"/><polygon points="705.72 605.24 705.72 611.98 704.22 611.98 704.22 614.98 707.22 614.98 707.22 601.48 704.22 601.48 704.22 605.24 705.72 605.24"/><line class="cls-2" x1="728.03" y1="736.82" x2="730.68" y2="734.08"/><line class="cls-2" x1="730.1" y1="739.69" x2="732.75" y2="736.95"/><line class="cls-31" x1="708.74" y1="736.82" x2="794.93" y2="736.99"/><line class="cls-31" x1="708.74" y1="739.83" x2="794.93" y2="739.99"/><polygon points="617.21 601.47 617.21 605.21 609.74 605.21 609.74 594.76 613.47 594.76 613.47 601.47 617.21 601.47"/><rect class="cls-45" x="308.1" y="522.72" width="2.32" height="2.32"/><rect class="cls-45" x="317.16" y="534.78" width="2.32" height="2.32"/><rect class="cls-45" x="351" y="522.69" width="2.32" height="2.32"/><rect class="cls-45" x="428.91" y="552.71" width="2.32" height="2.32"/><text class="cls-1" transform="translate(412.77 1113.94) rotate(-90) scale(1 1.04)">854.5</text><text class="cls-1" transform="translate(314.59 1037.85) rotate(-90) scale(1 1.04)">695.5</text><rect class="cls-8" x="407.71" y="1217.5" width="8" height="25"/><text class="cls-11" transform="translate(429.89 1228.64) scale(1 1.04)">Valea<tspan x="-6.08" y="9.22">Ialomiței</tspan></text><text class="cls-11" transform="translate(341.54 1141.62) scale(1 1.04)">Depoul<tspan x="-13.8" y="9.22">Valea Ialomiței</tspan></text><polyline class="cls-2" points="359.17 1248.61 359.19 1210.26 404.55 1125.32"/><rect x="358.51" y="1247.91" width="1.34" height="1.34"/><polyline class="cls-2" points="366.56 1248.61 366.57 1215.33 404.63 1141.62"/><rect x="365.89" y="1247.91" width="1.34" height="1.34"/><line class="cls-2" x1="371.85" y1="1248.56" x2="371.87" y2="1204.59"/><rect x="371.18" y="1247.86" width="1.34" height="1.34"/><line class="cls-16" x1="404.68" y1="1257.32" x2="404.63" y2="1156.32"/><line class="cls-2" x1="392.4" y1="1212.86" x2="392.42" y2="1179.47"/><rect x="391.74" y="1212.15" width="1.34" height="1.34"/><line class="cls-2" x1="377.12" y1="1252.36" x2="377.12" y2="1194.59"/><rect x="376.45" y="1251.66" width="1.34" height="1.34"/><line class="cls-2" x1="382.59" y1="1252.36" x2="382.59" y2="1183.99"/><rect x="381.92" y="1251.66" width="1.34" height="1.34"/><line class="cls-2" x1="385.11" y1="1161.73" x2="385.06" y2="1179.52"/><line class="cls-2" x1="378.05" y1="1174.94" x2="392.26" y2="1165.58"/><polyline class="cls-16" points="416.16 1169.76 416.16 1075.54 410.27 1067.35 324.23 1067.35 317.95 1062.44 317.95 997.83"/><text class="cls-1" transform="translate(496.12 1075.77) scale(1 1.04)">548</text><text class="cls-1" transform="translate(424.61 1075.77) scale(1 1.04)">625.5</text><text class="cls-11" transform="translate(484.71 1013.29) scale(1 1.04)">Râul <tspan x="-7.79" y="9.22">Doamnei</tspan></text><text class="cls-11" transform="translate(443.18 1087.92) scale(1 1.04)">Brâncuși <tspan x="-13.71" y="9.22">(Valea Argeșului)</tspan></text><text class="cls-11" transform="translate(329.35 1092.03) scale(1 1.04)">Romancierilor</text><polyline class="cls-16" points="387.68 1067.35 392.19 1061.23 432.53 1061.04 436.1 1067.3 505.93 1067.39 515.14 1060.81"/><rect class="cls-8" x="518.11" y="970.4" width="9.65" height="9.65" transform="translate(1045.86 1950.45) rotate(180)"/><text class="cls-4" transform="translate(524.94 972.1) rotate(180) scale(1 1.04)">5</text><line class="cls-16" x1="516.93" y1="1039.43" x2="526.65" y2="1053.07"/><polyline class="cls-2" points="532.77 1029.66 532.77 1040.62 526.83 1046.25"/><rect x="532.11" y="1029.03" width="1.34" height="1.34"/><line class="cls-21" x1="528.76" y1="988.33" x2="528.76" y2="981.33"/><rect class="cls-22" x="527.54" y="981.14" width="2.44" height="0.38"/><line class="cls-21" x1="516.93" y1="988.33" x2="516.93" y2="981.33"/><rect class="cls-22" x="515.72" y="981.14" width="2.44" height="0.38"/><line class="cls-16" x1="516.93" y1="988.33" x2="516.85" y2="1051.49"/><polyline class="cls-16" points="306.36 997.83 306.36 1066.94 321.5 1078.94 515.14 1078.94 526.7 1070.5 526.7 1042.75"/><polyline class="cls-16" points="528.77 988.33 528.77 1040.91 515.15 1053 515.14 1060.81 505.93 1067.39"/><line class="cls-2" x1="382.73" y1="1201.86" x2="404.63" y2="1150.8"/><rect class="cls-23" x="312.53" y="1126.67" width="85" height="135"/><line class="cls-16" x1="404.7" y1="1170.26" x2="416.16" y2="1157.11"/><line class="cls-2" x1="404.7" y1="1134.79" x2="416.16" y2="1127.8"/><polyline class="cls-16" points="376.92 1078.72 380.76 1074 398.99 1074 404.63 1081.95 404.63 1156.32 418.69 1172.7 418.65 1257.32"/><rect class="cls-8" x="406.89" y="1261.09" width="9.65" height="9.65" transform="translate(823.43 2531.82) rotate(180)"/><text class="cls-4" transform="translate(413.73 1262.78) rotate(180) scale(1 1.04)">5</text><line class="cls-21" x1="418.69" y1="1251.72" x2="418.69" y2="1258.72"/><rect class="cls-22" x="417.47" y="1258.53" width="2.44" height="0.38"/><line class="cls-21" x1="404.7" y1="1251.72" x2="404.7" y2="1258.72"/><rect class="cls-22" x="403.48" y="1258.53" width="2.44" height="0.38"/><polyline class="cls-8" points="346.54 1069.19 365.11 1069.19 365.11 1075.53 346.54 1075.53"/><polyline class="cls-8" points="447.9 1069.98 466.48 1069.98 466.48 1076.32 447.9 1076.32"/><polyline class="cls-8" points="526.1 1004 526.1 1022.58 519.76 1022.58 519.76 1004"/><rect class="cls-2" x="614.33" y="785.98" width="253.41" height="484.75"/><text class="cls-11" transform="translate(660.28 1203.63) scale(1 1.04)">Stație cu peron central</text><polyline class="cls-8" points="645.07 1193.04 645.07 1209.34 639.51 1209.34 639.51 1193.04"/><line class="cls-16" x1="638.22" y1="1190.39" x2="638.22" y2="1211.99"/><line class="cls-16" x1="646.36" y1="1190.39" x2="646.36" y2="1211.99"/><text class="cls-11" transform="translate(660.28 1230.88) scale(1 1.04)">Stație cu peroane laterale</text><polyline class="cls-9" points="635.27 1222.52 649.31 1222.52 649.31 1226.18 635.27 1226.18"/><polyline class="cls-9" points="635.27 1230.69 649.31 1230.69 649.31 1234.35 635.27 1234.35"/><line class="cls-20" x1="633.52" y1="1229.38" x2="651.05" y2="1229.38"/><line class="cls-20" x1="633.52" y1="1227.5" x2="651.05" y2="1227.5"/><text class="cls-11" transform="translate(660.28 1253.66) scale(1 1.04)">Corespondență între stații</text><polyline class="cls-6" points="643.49 1244.44 649.12 1244.44 649.12 1250.81 643.49 1250.81"/><polyline class="cls-3" points="641.81 1257.99 635.46 1252.28 641.81 1252.28"/><polyline class="cls-7" points="635.46 1252.28 641.81 1257.99 635.46 1257.99"/><polygon points="647.97 1249.26 647.97 1257.09 640.22 1257.09 640.22 1253.84 644.72 1253.84 644.72 1249.26 647.97 1249.26"/><polyline class="cls-10" points="634.61 1056.24 648.75 1056.24 648.75 1060.36 634.61 1060.36"/><text class="cls-11" transform="translate(659.67 1060.74) scale(1 1.04)">Canal de inspecție/reparație</text><text class="cls-11" transform="translate(659.67 930.39) scale(1 1.04)">Limită depou</text><line class="cls-25" x1="633.52" y1="927.95" x2="649.83" y2="927.95"/><text class="cls-11" transform="translate(659.67 889.6) scale(1 1.04)">Linie tehnologică</text><line class="cls-2" x1="633.52" y1="887.16" x2="649.83" y2="887.16"/><text class="cls-11" transform="translate(659.67 846.42) scale(1 1.04)">Linie magistrală</text><line class="cls-16" x1="633.52" y1="849.82" x2="649.83" y2="849.82"/><line class="cls-20" x1="633.52" y1="838.14" x2="649.83" y2="838.14"/><line class="cls-15" x1="633.52" y1="846.9" x2="649.83" y2="846.9"/><line class="cls-30" x1="633.52" y1="843.98" x2="649.83" y2="843.98"/><line class="cls-31" x1="633.52" y1="841.06" x2="649.83" y2="841.06"/><text class="cls-11" transform="translate(659.67 953.51) scale(1 1.04)">Macaz</text><line class="cls-2" x1="637.08" y1="955.67" x2="646.28" y2="946.47"/><line class="cls-2" x1="646.28" y1="955.67" x2="637.08" y2="946.47"/><text class="cls-11" transform="translate(659.67 997.34) scale(1 1.04)">Sens de circulație</text><polyline class="cls-46" points="644.26 996.89 646.24 994.9 644.26 992.92"/><polyline class="cls-46" points="639.1 996.89 637.11 994.9 639.1 992.92"/><text class="cls-11" transform="translate(659.67 975.93) scale(1 1.04)">Ieșire la suprafață</text><polyline class="cls-28" points="648.25 970.69 635.11 970.69 635.11 976.28 648.25 976.28"/><text class="cls-11" transform="translate(659.67 910.54) scale(1 1.04)">Tunel fără linie</text><line class="cls-19" x1="633.63" y1="908.1" x2="649.72" y2="908.1"/><text class="cls-11" transform="translate(659.67 1017.91) scale(1 1.04)">Terminus magistrală</text><rect class="cls-8" x="636.86" y="1010.6" width="9.65" height="9.65" transform="translate(1283.36 2030.84) rotate(180)"/><text class="cls-4" transform="translate(643.29 1012.29) rotate(180) scale(1 1.04)">5</text><text class="cls-11" transform="translate(659.67 1039.32) scale(1 1.04)">Opritoare</text><line class="cls-21" x1="639.1" y1="1040.47" x2="639.1" y2="1033.48"/><rect class="cls-22" x="637.88" y="1033.29" width="2.44" height="0.38"/><line class="cls-21" x1="644.26" y1="1040.47" x2="644.26" y2="1033.48"/><rect class="cls-22" x="643.04" y="1033.29" width="2.44" height="0.38"/><text class="cls-11" transform="translate(659.67 1082.16) scale(1 1.04)">Pod</text><polyline class="cls-28" points="636.21 1082.86 637.86 1081.21 645.79 1081.21 647.14 1082.86"/><polyline class="cls-28" points="636.21 1076.57 637.86 1078.22 645.79 1078.22 647.14 1076.57"/><text class="cls-11" transform="translate(659.67 1103.57) scale(1 1.04)">Distanța între stații (m)</text><text class="cls-1" transform="translate(634.61 1103.67) scale(1 1.04)">625.5</text><text class="cls-11" transform="translate(659.67 868.35) scale(1 1.04)">Tronson Comun</text><line class="cls-20" x1="633.52" y1="865.91" x2="649.83" y2="865.91"/><line class="cls-30" x1="633.52" y1="865.91" x2="636.02" y2="865.91"/><line class="cls-47" x1="639.79" y1="865.91" x2="645.45" y2="865.91"/><line class="cls-30" x1="647.33" y1="865.91" x2="649.83" y2="865.91"/><path d="M646.19,1123.55v-.74h-.78v-2.25H644v-1.5h.73v-.74h-3v.74h.76v1.5h-.74v-.74H640.2v.74h-.76v-1.5h-3v4.5h.76v1.5h1.51v-.75h.74v.75H641v-.75h.73v.75h1.51v-.75h.7v.75h1.51v-.76h1.51v-.75Zm-7.5-2.25h-1.5v-1.49h1.5Z"/><text class="cls-11" transform="translate(659.67 1124.13) scale(1 1.04)">Corespondență (pentru călători) cu calea ferată</text><polyline class="cls-26" points="639.85 1150.02 639.85 1141.19 643.51 1138.37"/><polygon class="cls-27" points="642.91 1147.53 642.37 1147.02 639.85 1149.73 637.33 1147.02 636.78 1147.53 639.85 1150.83 642.91 1147.53"/><text class="cls-11" transform="translate(659.67 1147.04) scale(1 1.04)">Corespondență cu rețeaua CF</text></g><g id="Directii"><polyline class="cls-15" points="236.76 86.18 238.74 88.17 240.73 86.18"/><polyline class="cls-15" points="245.92 83.28 247.91 81.3 249.89 83.28"/><polyline class="cls-15" points="236.84 155.36 238.83 157.35 240.81 155.36"/><polyline class="cls-15" points="246 152.47 247.99 150.48 249.98 152.47"/><polyline class="cls-15" points="236.84 185.04 238.83 187.02 240.81 185.04"/><polyline class="cls-15" points="246 182.14 247.99 180.15 249.98 182.14"/><polyline class="cls-15" points="236.78 267.56 238.76 269.55 240.75 267.56"/><polyline class="cls-15" points="245.94 264.66 247.93 262.68 249.91 264.66"/><polyline class="cls-15" points="236.71 305.36 238.7 307.35 240.69 305.36"/><polyline class="cls-15" points="245.92 307.35 247.91 305.36 249.89 307.35"/><polyline class="cls-30" points="69.28 518.9 67.29 520.88 69.28 522.87"/><polyline class="cls-30" points="67.29 528.12 69.28 530.1 67.29 532.09"/><polyline class="cls-30" points="726.95 606.41 728.93 608.4 726.95 610.39"/><polyline class="cls-30" points="728.93 614.63 726.95 616.62 728.93 618.61"/><polyline class="cls-20" points="717.74 593.6 714.99 592.99 715.6 590.25"/><polyline class="cls-20" points="725.5 603.84 726.11 601.1 723.36 600.49"/><polyline class="cls-30" points="838.3 605.92 840.28 607.91 838.3 609.9"/><polyline class="cls-30" points="840.33 614.91 838.34 616.89 840.33 618.88"/><polyline class="cls-31" points="695.78 729.05 693.79 731.04 695.78 733.03"/><polyline class="cls-31" points="693.79 738.27 695.78 740.26 693.79 742.25"/><polyline class="cls-20" points="851.58 430.78 851.58 427.97 848.77 427.97"/><polyline class="cls-20" points="846.95 429.57 846.95 432.38 849.76 432.38"/><polyline class="cls-20" points="846.82 362.84 844.01 362.84 844.01 365.65"/><polyline class="cls-20" points="845.61 367.47 848.42 367.47 848.42 364.66"/><polyline class="cls-31" points="526.73 245.11 524.74 247.1 526.73 249.08"/><polyline class="cls-31" points="524.74 254.33 526.73 256.32 524.74 258.3"/><polyline class="cls-48" points="605.04 509.33 607.03 511.32 609.01 509.33"/><polyline class="cls-48" points="614.26 511.32 616.25 509.33 618.23 511.32"/><polyline class="cls-30" points="400.2 530.99 400.18 533.79 397.37 533.77"/><polyline class="cls-49" points="400.2 530.99 400.18 533.79 397.37 533.77"/><polyline class="cls-50" points="404.85 537.09 404.87 534.28 407.68 534.3"/><polyline class="cls-51" points="404.85 537.09 404.87 534.28 407.68 534.3"/><polyline class="cls-31" points="451.42 496.03 453.4 498.02 455.39 496.03"/><polyline class="cls-31" points="460.64 498.02 462.62 496.03 464.61 498.02"/><polyline class="cls-30" points="592.24 616.66 592.24 613.85 589.43 613.85"/><polyline class="cls-49" points="592.24 616.66 592.24 613.85 589.43 613.85"/><polyline class="cls-50" points="594.16 610.15 591.36 610.15 591.36 607.34"/><polyline class="cls-51" points="594.16 610.15 591.36 610.15 591.36 607.34"/></g></svg>